<svg xmlns="http://www.w3.org/2000/svg" width="21" height="21" viewBox="0 0 21 21" fill="none">
  <path d="M10.2296 1.88257C8.12025 1.88261 6.09292 2.69962 4.57298 4.16216C3.05305 5.62471 2.15865 7.6191 2.07746 9.72687C1.99628 11.8346 2.73461 13.8919 4.13754 15.467C5.54047 17.0422 7.49895 18.0127 9.60202 18.175V11.9235H7.71937C7.55293 11.9235 7.39331 11.8573 7.27562 11.7397C7.15793 11.622 7.09182 11.4623 7.09182 11.2959C7.09182 11.1295 7.15793 10.9699 7.27562 10.8522C7.39331 10.7345 7.55293 10.6684 7.71937 10.6684H9.60202V8.7857C9.60278 8.12019 9.86749 7.48215 10.3381 7.01156C10.8087 6.54097 11.4467 6.27626 12.1122 6.2755H13.3673C13.5338 6.2755 13.6934 6.34162 13.8111 6.45931C13.9288 6.57699 13.9949 6.73661 13.9949 6.90305C13.9949 7.06949 13.9288 7.22911 13.8111 7.3468C13.6934 7.46448 13.5338 7.5306 13.3673 7.5306H12.1122C11.7795 7.53098 11.4605 7.66334 11.2252 7.89863C10.9899 8.13393 10.8575 8.45295 10.8571 8.7857V10.6684H12.7398C12.9062 10.6684 13.0658 10.7345 13.1835 10.8522C13.3012 10.9699 13.3673 11.1295 13.3673 11.2959C13.3673 11.4623 13.3012 11.622 13.1835 11.7397C13.0658 11.8573 12.9062 11.9235 12.7398 11.9235H10.8571V18.175C12.9602 18.0127 14.9187 17.0422 16.3216 15.467C17.7245 13.8919 18.4628 11.8346 18.3817 9.72687C18.3005 7.61911 17.4061 5.62472 15.8861 4.16217C14.3662 2.69963 12.3389 1.88261 10.2296 1.88257Z" fill="currentColor"/>
</svg>