<svg width="24" height="24" viewBox="0 0 24 24" fill="none" xmlns="http://www.w3.org/2000/svg">
<path d="M12 19.2221H14.4889L15.5556 18.3333" stroke="#262626" stroke-width="1.2" stroke-linecap="round"/>
<path d="M17.3334 11.2222V9.82276C17.3334 7.15922 14.9456 5 12.0001 5C9.05456 5 6.66675 7.15922 6.66675 9.82276V11.2222" stroke="#262626" stroke-width="1.2" stroke-linecap="round" stroke-linejoin="round"/>
<path d="M15.2667 12.9999C15.2667 12.3495 15.7941 11.8222 16.4445 11.8222C18.0768 11.8222 19.4001 13.1454 19.4001 14.7777V15.6666C19.4001 17.2989 18.0768 18.6222 16.4445 18.6222C15.7941 18.6222 15.2667 18.0949 15.2667 17.4444V12.9999Z" stroke="#EB000E" stroke-width="1.2"/>
<path d="M8.73325 12.9999C8.73325 12.3495 8.20594 11.8222 7.55547 11.8222C5.92317 11.8222 4.59992 13.1454 4.59992 14.7777V15.6666C4.59992 17.2989 5.92317 18.6222 7.55547 18.6222C8.20594 18.6222 8.73325 18.0949 8.73325 17.4444V12.9999Z" stroke="#EB000E" stroke-width="1.2"/>
</svg>
