<svg xmlns="http://www.w3.org/2000/svg" width="21" height="21" viewBox="0 0 21 21" fill="none">
  <path d="M10.5001 12.5509C11.8864 12.5509 13.0103 11.4271 13.0103 10.0407C13.0103 8.65437 11.8864 7.53052 10.5001 7.53052C9.11372 7.53052 7.98987 8.65437 7.98987 10.0407C7.98987 11.4271 9.11372 12.5509 10.5001 12.5509Z" fill="currentColor"/>
  <path d="M13.9516 2.19653H7.0485C5.88384 2.19785 4.76727 2.66109 3.94373 3.48463C3.1202 4.30816 2.65696 5.42474 2.65564 6.58939V13.4925C2.65696 14.6571 3.1202 15.7737 3.94373 16.5972C4.76727 17.4207 5.88384 17.884 7.0485 17.8853H13.9516C15.1162 17.884 16.2328 17.4207 17.0563 16.5972C17.8799 15.7737 18.3431 14.6571 18.3444 13.4925V6.58939C18.3431 5.42474 17.8799 4.30816 17.0563 3.48463C16.2328 2.66109 15.1162 2.19785 13.9516 2.19653ZM10.5 13.8062C9.75532 13.8062 9.02734 13.5854 8.40814 13.1717C7.78893 12.7579 7.30633 12.1699 7.02134 11.4818C6.73635 10.7938 6.66179 10.0367 6.80707 9.30635C6.95236 8.57595 7.31097 7.90504 7.83755 7.37845C8.36414 6.85186 9.03505 6.49325 9.76545 6.34796C10.4959 6.20268 11.2529 6.27725 11.9409 6.56223C12.629 6.84722 13.217 7.32983 13.6308 7.94903C14.0445 8.56823 14.2653 9.29621 14.2653 10.0409C14.2642 11.0392 13.8671 11.9963 13.1613 12.7021C12.4554 13.408 11.4983 13.8051 10.5 13.8062ZM14.5791 6.90317C14.3929 6.90317 14.2109 6.84796 14.0561 6.74452C13.9013 6.64109 13.7807 6.49407 13.7094 6.32207C13.6382 6.15006 13.6195 5.96079 13.6559 5.7782C13.6922 5.5956 13.7818 5.42787 13.9135 5.29622C14.0451 5.16457 14.2129 5.07492 14.3955 5.0386C14.5781 5.00228 14.7673 5.02092 14.9393 5.09217C15.1113 5.16341 15.2584 5.28407 15.3618 5.43887C15.4652 5.59367 15.5204 5.77566 15.5204 5.96184C15.5204 6.21149 15.4213 6.45092 15.2447 6.62746C15.0682 6.80399 14.8288 6.90317 14.5791 6.90317Z" fill="currentColor"/>
</svg>