<svg width="24" height="24" viewBox="0 0 24 24" fill="none" xmlns="http://www.w3.org/2000/svg">
<path d="M12.9536 19.8406C12.8083 19.9443 12.6343 20 12.4558 20C12.2773 20 12.1033 19.9443 11.958 19.8406C7.66538 16.7809 3.10966 10.4874 7.71516 5.93963C8.97908 4.69524 10.6821 3.99846 12.4558 4C14.2336 4 15.9395 4.69781 17.1964 5.93874C21.8019 10.4865 17.2462 16.7791 12.9536 19.8406Z" stroke="black" stroke-width="1.2" stroke-linecap="round" stroke-linejoin="round"/>
<path d="M12.4556 12C12.9271 12 13.3793 11.8127 13.7127 11.4793C14.0461 11.1459 14.2334 10.6937 14.2334 10.2222C14.2334 9.75067 14.0461 9.29846 13.7127 8.96505C13.3793 8.63164 12.9271 8.44434 12.4556 8.44434C11.9841 8.44434 11.5319 8.63164 11.1985 8.96505C10.865 9.29846 10.6777 9.75067 10.6777 10.2222C10.6777 10.6937 10.865 11.1459 11.1985 11.4793C11.5319 11.8127 11.9841 12 12.4556 12Z" stroke="#EB000E" stroke-width="1.2" stroke-linecap="round" stroke-linejoin="round"/>
</svg>
