<svg width="24" height="24" viewBox="0 0 24 24" fill="none" xmlns="http://www.w3.org/2000/svg">
<path d="M20 9.06667V7.73334C19.9977 7.65167 19.9777 7.57167 19.9413 7.49867L18.64 4.88534C18.3687 4.34167 17.813 3.99867 17.2053 4H6.79467C6.187 3.99867 5.63133 4.34167 5.36 4.88534L4.05867 7.49334C4.02167 7.568 4.00167 7.65 4 7.73334V9.06667C4.00133 9.86767 4.401 10.6157 5.06667 11.0613V18.9333H4.53333C4.23867 18.9333 4 19.172 4 19.4667C4 19.7613 4.23867 20 4.53333 20H19.4667C19.7613 20 20 19.7613 20 19.4667C20 19.172 19.7613 18.9333 19.4667 18.9333H18.9333V11.0613C19.599 10.6157 19.9987 9.86767 20 9.06667ZM18.9333 9.06667C18.9333 9.803 18.3363 10.4 17.6 10.4C16.8637 10.4 16.2667 9.803 16.2667 9.06667V8.26667H18.9333V9.06667ZM5.06667 9.06667V8.26667H7.73333V9.06667C7.73333 9.803 7.13633 10.4 6.4 10.4C5.66367 10.4 5.06667 9.803 5.06667 9.06667ZM8.8 8.26667H11.4667V9.06667C11.4667 9.803 10.8697 10.4 10.1333 10.4C9.397 10.4 8.8 9.803 8.8 9.06667V8.26667ZM12.5333 8.26667H15.2V9.06667C15.2 9.803 14.603 10.4 13.8667 10.4C13.1303 10.4 12.5333 9.803 12.5333 9.06667V8.26667ZM6.31467 5.36C6.406 5.179 6.592 5.06534 6.79467 5.06667H17.2053C17.408 5.06534 17.594 5.179 17.6853 5.36L18.6027 7.2H5.39733L6.31467 5.36ZM13.6 18.9333H10.4H13.6ZM9.33333 18.9333H6.13333V11.4667C6.22167 11.4807 6.31067 11.4897 6.4 11.4933C7.12933 11.487 7.816 11.1497 8.26667 10.576C9.09967 11.607 10.611 11.7673 11.6417 10.9343C11.7733 10.828 11.8933 10.708 12 10.576C12.833 11.607 14.3443 11.7673 15.375 10.9343C15.5067 10.828 15.6267 10.708 15.7333 10.576C16.189 11.1397 16.8753 11.467 17.6 11.4667C17.6887 11.472 17.778 11.472 17.8667 11.4667V18.9333H14.6667" fill="#262626"/>
<path d="M14.6353 18.9506V15.7506C14.6353 14.867 13.919 14.1506 13.0353 14.1506H10.902C10.0183 14.1506 9.302 14.867 9.302 15.7506V18.9506" stroke="#EB000E" stroke-width="1.2" stroke-miterlimit="10"/>
</svg>
