<svg xmlns="http://www.w3.org/2000/svg" width="21" height="21" viewBox="0 0 21 21" fill="none">
  <path d="M20.1886 6.09168L17.8224 8.4579C17.35 13.9396 12.7271 18.199 7.19383 18.199C6.05448 18.199 5.11553 18.0183 4.40298 17.662C3.82795 17.3745 3.59238 17.0659 3.53393 16.9782C3.4815 16.8995 3.44751 16.81 3.4345 16.7164C3.4215 16.6228 3.42981 16.5274 3.45883 16.4374C3.48785 16.3475 3.53682 16.2652 3.60208 16.1968C3.66734 16.1284 3.74721 16.0757 3.83572 16.0425C3.85591 16.0349 5.70646 15.3241 6.9025 13.9709C6.15856 13.4411 5.5038 12.7962 4.96285 12.0604C3.88755 10.6011 2.75027 8.06672 3.43864 4.28058C3.45913 4.1679 3.51006 4.06298 3.58591 3.97718C3.66177 3.89138 3.75966 3.82797 3.86898 3.79382C3.97829 3.75968 4.09487 3.7561 4.20607 3.78347C4.31728 3.81084 4.41887 3.86812 4.49985 3.9491C4.52751 3.97668 7.13887 6.55116 10.3312 7.38275L10.3316 6.90274C10.3383 5.89798 10.7438 4.93701 11.4588 4.23106C12.1738 3.52512 13.1399 3.13196 14.1446 3.13801C14.7973 3.14705 15.4366 3.32523 15.9999 3.65515C16.5631 3.98508 17.0312 4.45546 17.3584 5.02035L19.7449 5.02039C19.869 5.02039 19.9903 5.0572 20.0935 5.12615C20.1967 5.19511 20.2771 5.29311 20.3246 5.40778C20.3721 5.52245 20.3846 5.64863 20.3604 5.77036C20.3362 5.89209 20.2764 5.00391 20.1886 6.09168Z" fill="currentColor"/>
</svg>