<svg width="24" height="24" viewBox="0 0 24 24" fill="none" xmlns="http://www.w3.org/2000/svg">
<path d="M4 4H4.64156C5.40187 4 6.06783 4.50959 6.26659 5.24346L6.84447 7.37718M6.84447 7.37718L8.68339 14.167C8.9027 14.9768 9.68475 15.5015 10.5172 15.3975L17.5192 14.5222C18.2342 14.4329 18.813 13.8984 18.959 13.1928L19.7433 9.40185C19.9595 8.35702 19.1616 7.37718 18.0947 7.37718H6.84447ZM12.0811 18.7373C12.0811 19.4347 11.5158 20 10.8184 20C10.1211 20 9.55577 19.4347 9.55577 18.7373C9.55577 18.04 10.1211 17.4747 10.8184 17.4747C11.5158 17.4747 12.0811 18.04 12.0811 18.7373ZM18.8154 18.7373C18.8154 19.4347 18.2501 20 17.5527 20C16.8554 20 16.29 19.4347 16.29 18.7373C16.29 18.04 16.8554 17.4747 17.5527 17.4747C18.2501 17.4747 18.8154 18.04 18.8154 18.7373Z" stroke="black" stroke-width="1.2" stroke-linecap="round"/>
</svg>
