<svg width="24" height="24" viewBox="0 0 24 24" fill="none" xmlns="http://www.w3.org/2000/svg">
<path d="M19.7894 5.57174C18.8961 4.55818 17.6569 4 16.3001 4C14.3918 4 13.1837 5.1397 12.5062 6.09582C12.3304 6.34393 12.1809 6.5927 12.0554 6.8268C11.9298 6.5927 11.7804 6.34393 11.6046 6.09582C10.9271 5.1397 9.71895 4 7.81067 4C6.45385 4 5.21464 4.55821 4.32134 5.57178C3.46929 6.53865 3 7.83357 3 9.21798C3 10.725 3.58835 12.1266 4.85158 13.6289C5.98056 14.9717 7.60476 16.3557 9.48556 17.9584C10.1864 18.5557 10.9111 19.1733 11.6827 19.8484L11.7059 19.8687C11.8059 19.9562 11.9307 20 12.0554 20C12.1801 20 12.3048 19.9562 12.4049 19.8687L12.428 19.8484C13.1996 19.1733 13.9244 18.5557 14.6253 17.9584C16.506 16.3558 18.1302 14.9717 19.2592 13.6289C20.5224 12.1266 21.1108 10.725 21.1108 9.21798C21.1108 7.83357 20.6415 6.53865 19.7894 5.57174ZM13.9369 17.1507C13.3328 17.6656 12.711 18.1954 12.0554 18.7654C11.3998 18.1955 10.778 17.6656 10.1737 17.1507C6.49286 14.0141 4.06118 11.9419 4.06118 9.21798C4.06118 8.09207 4.4363 7.04632 5.11747 6.27339C5.80646 5.4917 6.7629 5.06118 7.81067 5.06118C9.26551 5.06118 10.206 5.95745 10.7387 6.70933C11.2165 7.38367 11.4659 8.06346 11.5509 8.3244C11.622 8.54283 11.8257 8.69065 12.0554 8.69065C12.2851 8.69065 12.4887 8.54283 12.5599 8.3244C12.6449 8.06346 12.8942 7.38367 13.3721 6.70929C13.9048 5.95745 14.8452 5.06118 16.3001 5.06118C17.3479 5.06118 18.3043 5.4917 18.9932 6.27339C19.6744 7.04632 20.0496 8.09207 20.0496 9.21798C20.0496 11.9419 17.6179 14.0141 13.9369 17.1507Z" fill="#262626" stroke="#262626" stroke-width="0.3"/>
</svg>
